<svg width="231" height="31" viewBox="0 0 231 31" fill="none" xmlns="http://www.w3.org/2000/svg">
<path d="M19.0312 21.125C18.1875 22.1354 16.9948 22.9219 15.4531 23.4844C13.9115 24.0365 12.2031 24.3125 10.3281 24.3125C8.35938 24.3125 6.63021 23.8854 5.14062 23.0312C3.66146 22.1667 2.51562 20.9167 1.70312 19.2812C0.901042 17.6458 0.489583 15.724 0.46875 13.5156V11.9688C0.46875 9.69792 0.848958 7.73438 1.60938 6.07812C2.38021 4.41146 3.48438 3.14062 4.92188 2.26562C6.36979 1.38021 8.0625 0.9375 10 0.9375C12.6979 0.9375 14.8073 1.58333 16.3281 2.875C17.849 4.15625 18.75 6.02604 19.0312 8.48438H14.4688C14.2604 7.18229 13.7969 6.22917 13.0781 5.625C12.3698 5.02083 11.3906 4.71875 10.1406 4.71875C8.54688 4.71875 7.33333 5.31771 6.5 6.51562C5.66667 7.71354 5.24479 9.49479 5.23438 11.8594V13.3125C5.23438 15.6979 5.6875 17.5 6.59375 18.7188C7.5 19.9375 8.82812 20.5469 10.5781 20.5469C12.3385 20.5469 13.5938 20.1719 14.3438 19.4219V15.5H10.0781V12.0469H19.0312V21.125ZM30.3281 24.3125C27.849 24.3125 25.8281 23.5521 24.2656 22.0312C22.7135 20.5104 21.9375 18.4844 21.9375 15.9531V15.5156C21.9375 13.8177 22.2656 12.3021 22.9219 10.9688C23.5781 9.625 24.5052 8.59375 25.7031 7.875C26.9115 7.14583 28.2865 6.78125 29.8281 6.78125C32.1406 6.78125 33.9583 7.51042 35.2812 8.96875C36.6146 10.4271 37.2812 12.4948 37.2812 15.1719V17.0156H26.5156C26.6615 18.1198 27.099 19.0052 27.8281 19.6719C28.5677 20.3385 29.5 20.6719 30.625 20.6719C32.3646 20.6719 33.724 20.0417 34.7031 18.7812L36.9219 21.2656C36.2448 22.224 35.3281 22.974 34.1719 23.5156C33.0156 24.0469 31.7344 24.3125 30.3281 24.3125ZM29.8125 10.4375C28.9167 10.4375 28.1875 10.7396 27.625 11.3438C27.0729 11.9479 26.7188 12.8125 26.5625 13.9375H32.8438V13.5781C32.8229 12.5781 32.5521 11.8073 32.0312 11.2656C31.5104 10.7135 30.7708 10.4375 29.8125 10.4375ZM47.6406 24.3125C45.1615 24.3125 43.1406 23.5521 41.5781 22.0312C40.026 20.5104 39.25 18.4844 39.25 15.9531V15.5156C39.25 13.8177 39.5781 12.3021 40.2344 10.9688C40.8906 9.625 41.8177 8.59375 43.0156 7.875C44.224 7.14583 45.599 6.78125 47.1406 6.78125C49.4531 6.78125 51.2708 7.51042 52.5938 8.96875C53.9271 10.4271 54.5938 12.4948 54.5938 15.1719V17.0156H43.8281C43.974 18.1198 44.4115 19.0052 45.1406 19.6719C45.8802 20.3385 46.8125 20.6719 47.9375 20.6719C49.6771 20.6719 51.0365 20.0417 52.0156 18.7812L54.2344 21.2656C53.5573 22.224 52.6406 22.974 51.4844 23.5156C50.3281 24.0469 49.0469 24.3125 47.6406 24.3125ZM47.125 10.4375C46.2292 10.4375 45.5 10.7396 44.9375 11.3438C44.3854 11.9479 44.0312 12.8125 43.875 13.9375H50.1562V13.5781C50.1354 12.5781 49.8646 11.8073 49.3438 11.2656C48.8229 10.7135 48.0833 10.4375 47.125 10.4375ZM63.3125 17.2188L61.6875 18.8438V24H57.1719V0H61.6875V13.2969L62.5625 12.1719L66.8906 7.09375H72.3125L66.2031 14.1406L72.8438 24H67.6562L63.3125 17.2188ZM88.25 14.7031H79.25V24H74.5625V1.25H89.375V5.04688H79.25V10.9219H88.25V14.7031ZM101.062 24C100.854 23.5938 100.703 23.0885 100.609 22.4844C99.5156 23.7031 98.0938 24.3125 96.3438 24.3125C94.6875 24.3125 93.3125 23.8333 92.2188 22.875C91.1354 21.9167 90.5938 20.7083 90.5938 19.25C90.5938 17.4583 91.2552 16.0833 92.5781 15.125C93.9115 14.1667 95.8333 13.6823 98.3438 13.6719H100.422V12.7031C100.422 11.9219 100.219 11.2969 99.8125 10.8281C99.4167 10.3594 98.7865 10.125 97.9219 10.125C97.1615 10.125 96.5625 10.3073 96.125 10.6719C95.6979 11.0365 95.4844 11.5365 95.4844 12.1719H90.9688C90.9688 11.1927 91.2708 10.2865 91.875 9.45312C92.4792 8.61979 93.3333 7.96875 94.4375 7.5C95.5417 7.02083 96.7812 6.78125 98.1562 6.78125C100.24 6.78125 101.891 7.30729 103.109 8.35938C104.339 9.40104 104.953 10.8698 104.953 12.7656V20.0938C104.964 21.6979 105.188 22.9115 105.625 23.7344V24H101.062ZM97.3281 20.8594C97.9948 20.8594 98.6094 20.7135 99.1719 20.4219C99.7344 20.1198 100.151 19.7188 100.422 19.2188V16.3125H98.7344C96.474 16.3125 95.2708 17.0938 95.125 18.6562L95.1094 18.9219C95.1094 19.4844 95.3073 19.9479 95.7031 20.3125C96.099 20.6771 96.6406 20.8594 97.3281 20.8594ZM117.922 11.3281C117.307 11.2448 116.766 11.2031 116.297 11.2031C114.589 11.2031 113.469 11.7812 112.938 12.9375V24H108.422V7.09375H112.688L112.812 9.10938C113.719 7.55729 114.974 6.78125 116.578 6.78125C117.078 6.78125 117.547 6.84896 117.984 6.98438L117.922 11.3281ZM124.875 24H120.344V7.09375H124.875V24ZM120.078 2.71875C120.078 2.04167 120.302 1.48438 120.75 1.04688C121.208 0.609375 121.828 0.390625 122.609 0.390625C123.38 0.390625 123.995 0.609375 124.453 1.04688C124.911 1.48438 125.141 2.04167 125.141 2.71875C125.141 3.40625 124.906 3.96875 124.438 4.40625C123.979 4.84375 123.37 5.0625 122.609 5.0625C121.849 5.0625 121.234 4.84375 120.766 4.40625C120.307 3.96875 120.078 3.40625 120.078 2.71875ZM138.406 24C138.198 23.5938 138.047 23.0885 137.953 22.4844C136.859 23.7031 135.438 24.3125 133.688 24.3125C132.031 24.3125 130.656 23.8333 129.562 22.875C128.479 21.9167 127.938 20.7083 127.938 19.25C127.938 17.4583 128.599 16.0833 129.922 15.125C131.255 14.1667 133.177 13.6823 135.688 13.6719H137.766V12.7031C137.766 11.9219 137.562 11.2969 137.156 10.8281C136.76 10.3594 136.13 10.125 135.266 10.125C134.505 10.125 133.906 10.3073 133.469 10.6719C133.042 11.0365 132.828 11.5365 132.828 12.1719H128.312C128.312 11.1927 128.615 10.2865 129.219 9.45312C129.823 8.61979 130.677 7.96875 131.781 7.5C132.885 7.02083 134.125 6.78125 135.5 6.78125C137.583 6.78125 139.234 7.30729 140.453 8.35938C141.682 9.40104 142.297 10.8698 142.297 12.7656V20.0938C142.307 21.6979 142.531 22.9115 142.969 23.7344V24H138.406ZM134.672 20.8594C135.339 20.8594 135.953 20.7135 136.516 20.4219C137.078 20.1198 137.495 19.7188 137.766 19.2188V16.3125H136.078C133.818 16.3125 132.615 17.0938 132.469 18.6562L132.453 18.9219C132.453 19.4844 132.651 19.9479 133.047 20.3125C133.443 20.6771 133.984 20.8594 134.672 20.8594ZM154.922 19.3281C154.922 18.776 154.646 18.3438 154.094 18.0312C153.552 17.7083 152.677 17.4219 151.469 17.1719C147.448 16.3281 145.438 14.6198 145.438 12.0469C145.438 10.5469 146.057 9.29688 147.297 8.29688C148.547 7.28646 150.177 6.78125 152.188 6.78125C154.333 6.78125 156.047 7.28646 157.328 8.29688C158.62 9.30729 159.266 10.6198 159.266 12.2344H154.75C154.75 11.5885 154.542 11.0573 154.125 10.6406C153.708 10.2135 153.057 10 152.172 10C151.411 10 150.823 10.1719 150.406 10.5156C149.99 10.8594 149.781 11.2969 149.781 11.8281C149.781 12.3281 150.016 12.7344 150.484 13.0469C150.964 13.349 151.766 13.6146 152.891 13.8438C154.016 14.0625 154.964 14.3125 155.734 14.5938C158.12 15.4688 159.312 16.9844 159.312 19.1406C159.312 20.6823 158.651 21.9323 157.328 22.8906C156.005 23.8385 154.297 24.3125 152.203 24.3125C150.786 24.3125 149.526 24.0625 148.422 23.5625C147.328 23.0521 146.469 22.3594 145.844 21.4844C145.219 20.599 144.906 19.6458 144.906 18.625H149.188C149.229 19.4271 149.526 20.0417 150.078 20.4688C150.63 20.8958 151.37 21.1094 152.297 21.1094C153.161 21.1094 153.812 20.9479 154.25 20.625C154.698 20.2917 154.922 19.8594 154.922 19.3281ZM186.781 15.7031C186.781 18.4115 186.203 20.526 185.047 22.0469C183.891 23.5573 182.276 24.3125 180.203 24.3125C178.37 24.3125 176.906 23.6094 175.812 22.2031L175.609 24H171.547V0H176.062V8.60938C177.104 7.39062 178.474 6.78125 180.172 6.78125C182.234 6.78125 183.849 7.54167 185.016 9.0625C186.193 10.5729 186.781 12.7031 186.781 15.4531V15.7031ZM182.266 15.375C182.266 13.6667 181.995 12.4219 181.453 11.6406C180.911 10.849 180.104 10.4531 179.031 10.4531C177.594 10.4531 176.604 11.0417 176.062 12.2188V18.8906C176.615 20.0781 177.615 20.6719 179.062 20.6719C180.521 20.6719 181.479 19.9531 181.938 18.5156C182.156 17.8281 182.266 16.7812 182.266 15.375ZM194.344 24H189.812V0H194.344V24ZM197.375 15.3906C197.375 13.7135 197.698 12.2188 198.344 10.9062C198.99 9.59375 199.917 8.57812 201.125 7.85938C202.344 7.14062 203.755 6.78125 205.359 6.78125C207.641 6.78125 209.5 7.47917 210.938 8.875C212.385 10.2708 213.193 12.1667 213.359 14.5625L213.391 15.7188C213.391 18.3125 212.667 20.3958 211.219 21.9688C209.771 23.5312 207.828 24.3125 205.391 24.3125C202.953 24.3125 201.005 23.5312 199.547 21.9688C198.099 20.4062 197.375 18.2812 197.375 15.5938V15.3906ZM201.891 15.7188C201.891 17.3229 202.193 18.5521 202.797 19.4062C203.401 20.25 204.266 20.6719 205.391 20.6719C206.484 20.6719 207.339 20.2552 207.953 19.4219C208.568 18.5781 208.875 17.2344 208.875 15.3906C208.875 13.8177 208.568 12.599 207.953 11.7344C207.339 10.8698 206.474 10.4375 205.359 10.4375C204.255 10.4375 203.401 10.8698 202.797 11.7344C202.193 12.5885 201.891 13.9167 201.891 15.7188ZM215.516 15.4219C215.516 12.8281 216.13 10.7396 217.359 9.15625C218.599 7.57292 220.266 6.78125 222.359 6.78125C224.214 6.78125 225.656 7.41667 226.688 8.6875L226.875 7.09375H230.969V23.4375C230.969 24.9167 230.63 26.2031 229.953 27.2969C229.286 28.3906 228.344 29.224 227.125 29.7969C225.906 30.3698 224.479 30.6562 222.844 30.6562C221.604 30.6562 220.396 30.4062 219.219 29.9062C218.042 29.4167 217.151 28.7812 216.547 28L218.547 25.25C219.672 26.5104 221.036 27.1406 222.641 27.1406C223.839 27.1406 224.771 26.8177 225.438 26.1719C226.104 25.5365 226.438 24.6302 226.438 23.4531V22.5469C225.396 23.724 224.026 24.3125 222.328 24.3125C220.297 24.3125 218.651 23.5208 217.391 21.9375C216.141 20.3438 215.516 18.2344 215.516 15.6094V15.4219ZM220.031 15.75C220.031 17.2812 220.339 18.4844 220.953 19.3594C221.568 20.224 222.411 20.6562 223.484 20.6562C224.859 20.6562 225.844 20.1406 226.438 19.1094V12C225.833 10.9688 224.859 10.4531 223.516 10.4531C222.432 10.4531 221.578 10.8958 220.953 11.7812C220.339 12.6667 220.031 13.9896 220.031 15.75Z" fill="#E1E1E6"/>
<path d="M162.469 21.7812C162.469 21.0625 162.708 20.4792 163.188 20.0312C163.677 19.5833 164.286 19.3594 165.016 19.3594C165.755 19.3594 166.365 19.5833 166.844 20.0312C167.333 20.4792 167.578 21.0625 167.578 21.7812C167.578 22.4896 167.339 23.0677 166.859 23.5156C166.38 23.9531 165.766 24.1719 165.016 24.1719C164.276 24.1719 163.667 23.9531 163.188 23.5156C162.708 23.0677 162.469 22.4896 162.469 21.7812Z" fill="#61DCFB"/>
</svg>
